<?xml version="1.0" encoding="UTF-8"?><svg id="Layer_2" xmlns="http://www.w3.org/2000/svg" xmlns:xlink="http://www.w3.org/1999/xlink" viewBox="0 0 321.7 330.61"><defs><style>.cls-1{fill:none;}.cls-2{clip-path:url(#clippath);}.cls-3{fill:#ed741a;}.cls-4{fill:#f28f1a;}.cls-5{fill:#ec6ea5;}.cls-6{fill:#fff;}.cls-7{fill:#ffcf44;}.cls-8{fill:#fdebb7;}.cls-9{fill:#aa82b9;}.cls-10{fill:#d25c14;}.cls-11{fill:#d49cc6;}.cls-12{fill:#172e4b;}.cls-13{fill:#3edbd7;}.cls-14{fill:#5c4959;}.cls-15{fill:#38b2ac;}.cls-16{fill:#7566aa;}.cls-17{fill:#46ffff;}</style><clipPath id="clippath"><rect class="cls-1" x=".32" y=".31" width="321.07" height="330" transform="translate(-.32 .31) rotate(-.11)"/></clipPath></defs><g id="Layer_1-2"><g class="cls-2"><g><path d="M199.76,25.66S209.03,3.9,170.13,1.13c-38.89-2.77-92.84,12.33-92.84,12.33,0,0,1.63,10.21-15.04,30.41-16.67,20.19-52.48,19.09-51.62,38.73,.86,19.64,20.92,54.63,20.92,54.63,0,0-18.05,14.9-15.55,29.62,2.49,14.73,21.14,29.17,21.14,29.17,0,0,2.97,34.23,15.15,43.32,38.83,29,8.8,94.99,37.36,106.57,13.9,5.63,134.16-93.39,134.16-93.39L199.76,25.66Z"/><path d="M83.94,224.57c3.96-2.05-11.46,75.3-25.16,91.66,0,5.74,25.17-85.79,17.07-91.65-4.2-3.03,8.09-.02,8.09-.02Z"/><path d="M82.22,105.14c.78-3.82-68.56,36.6-80.1,53.22-5.48,2.12,74.49-51.07,82.5-46.97,4.15,2.13-2.4-6.26-2.4-6.26Z"/><path d="M178.02,3.01c2.28-2.01-75.55-1.72-92.64,4.23-5.7-.62,86.8-4.87,92.13,.33,2.76,2.69,.5-4.55,.5-4.55Z"/><path class="cls-17" d="M98.46,226.36s28.89,12.46,23.8,74.17l70.2,13.96,24.14-133.04-118.13,44.91h0"/><path class="cls-15" d="M79.24,218.14s34.36,22.15,57.11,19.6c22.75-2.55,45.1-9.84,45.1-9.84l29.14-53.1-131.36,43.35"/><path d="M285.16,366.02s8.8-71.77-3.07-71.02-39.78-8.48-53.86-13.38c-14.07-4.89-30.8-12.57-33.06-21.06-2.26-8.49-9.68-12.73-13.03-43-3.3-29.78,16.29-52.6,16.29-52.6l5.26-28.18s-9.01-31.79-.78-33.88c8.22-2.09-41.09-34.63-41.09-34.63,0,0,18.62-43.12,38.37-38.36,19.76,4.76,42.95,37.38,55.43,49.47,25.79,24.99,3.3,38.62,7.85,51.8,4.55,13.18,15.51,13.35,23.34,38.78,7.83,25.43-16.03,27.56-8.55,38.06s3.16,6.16,18.58,24.3c15.41,18.14-8.57,90.72-14.76,62.64-3.98-18.05-17.32,11.42-17.07,22.33,.25,10.9,20.14,48.7,20.14,48.7Z"/><path class="cls-14" d="M118.01,257.01s50.57,17.64,68.78-16.8l20.18,14.83,77.83,30.29c4.61,1.66,8.54,4.78,11.16,8.86l19.19,34.46,.13,69.25-269.84,.52s-3.34-60.87,16.86-71.57c20.2-10.69,37.74-30.51,37.74-30.51l16.23-28.06,1.73-11.28Z"/><path class="cls-6" d="M150.31,24.93h.51s0,.51,0,.51c0,.26,.22,.48,.48,.48s.48-.22,.48-.48v-.51s.51,0,.51,0c.26,0,.48-.22,.48-.48s-.22-.48-.48-.48h-.51s0-.51,0-.51c0-.26-.22-.48-.48-.48s-.48,.22-.48,.48v.51s-.51,0-.51,0c-.26,0-.48,.22-.48,.48s.22,.48,.48,.48Z"/><path class="cls-6" d="M167.3,25.88h.25s0,.25,0,.25c0,.26,.22,.48,.48,.48s.48-.22,.48-.48v-.25s.25,0,.25,0c.26,0,.48-.22,.48-.48s-.22-.48-.48-.48h-.25s0-.25,0-.25c0-.26-.22-.48-.48-.48s-.48,.22-.48,.48v.25s-.25,0-.25,0c-.26,0-.48,.22-.48,.48s.22,.48,.48,.48Z"/><path class="cls-6" d="M162.29,40.54h-.31s0-.31,0-.31c0-.26-.22-.48-.48-.48s-.48,.22-.48,.48v.31s-.31,0-.31,0c-.26,0-.48,.22-.48,.48s.22,.48,.48,.48h.31s0,.31,0,.31c0,.26,.22,.48,.48,.48s.48-.22,.48-.48v-.31s.31,0,.31,0c.26,0,.48-.22,.48-.48s-.22-.48-.48-.48Z"/><path class="cls-6" d="M171.9,28.29c-1.38-1.1-3.31-2-5.6-2.63-.08-.02-.16-.05-.24-.07-2.21-.58-4.71-.88-7.24-.87-3.69,0-7.26,.67-10.04,1.86-2.82,1.21-4.68,2.9-5.22,4.76-.43,.86-.46,1.79-.09,2.7,.34,.83,.99,1.64,1.95,2.4,2.3,2.02,6.27,3.39,10.9,3.76,.19,.02,.37,.03,.55,.04,.65,.04,1.32,.06,1.98,.06,4.05,0,7.87-.78,10.75-2.18,3.02-1.47,4.68-3.47,4.68-5.63,0-1.51-.83-2.96-2.38-4.19Zm-25.69,7.23s-.02-.01-.02-.02c-.82-.64-1.73-1.55-1.76-2.67-.03-1.17,1.03-2.04,1.94-2.61,1.69-1.07,3.71-1.75,5.68-2.06,1.29-.2,2.6-.22,3.9-.08,.71,.08,1.41,.21,2.11,.37-.41-.1-1.1,.11-1.51,.2-.54,.11-1.08,.26-1.59,.47-1.45,.58-2.77,1.38-4.05,2.26-.68,.47-1.33,1.02-1.74,1.73-1.18,2.02,.46,3.77,2.1,4.82,.13,.08,.27,.17,.4,.24-2.27-.62-4.18-1.54-5.45-2.65Zm12.64-.84c-.35,0-.69-.01-1.03-.05-1.25-.17-2-.4-2.08-.42-1.45-.48-2.35-1.27-2.35-2.04,0-.71,.73-1.26,1.16-1.52,1.06-.64,2.62-1.01,4.28-1.01,1.81,0,3.51,.43,4.55,1.16,0,0,0,0,0,0,.42,.29,.91,.76,.91,1.35s-.52,1.2-1.44,1.68c-1.06,.55-2.48,.85-4.01,.86Zm10.22,2.34c-2.72,1.32-6.35,2.05-10.23,2.06-.61,0-1.23-.02-1.84-.05-.22-.06-1.05-.29-2.08-.68-1.24-.47-2.65-1.12-3.66-1.89-.83-.64-1.29-1.3-1.34-1.92,0-.05,0-.11,0-.16,.02-.32,.24-.7,.62-1.11,.35-.38,.83-.77,1.37-1.14,.09-.06,.18-.12,.28-.18,0,.08-.01,.15-.01,.23,0,1.33,1.19,2.52,3.17,3.19,.74,.27,1.53,.39,2.32,.48,.23,.02,.45,.06,.67,.1,2.28,.34,5.73,.86,9.35-.67,.31-.13,.45-.49,.32-.8-.01-.03-.03-.07-.05-.1-.16-.24-.47-.35-.74-.23-1.41,.59-2.81,.84-4.11,.92,.11-.05,.22-.1,.32-.16,1.36-.7,2.1-1.68,2.1-2.76,0-.87-.49-1.68-1.42-2.33,0,0,0,0,0,0-.16-.12-1.83-1.32-4.5-2.18-1.13-.37-2.3-.62-3.48-.75-1.21-.13-2.43-.13-3.64,0-.69,.08-1.37,.2-2.05,.37,2.43-.84,5.37-1.31,8.4-1.31,2.42,0,4.82,.28,6.93,.84,.26,.07,.51,.14,.76,.23,1.72,.59,3.11,1.58,3.72,2.69,.21,.37,.31,.74,.32,1.1,0,.22-.03,.43-.09,.64-.08,.24,0,.49,.19,.65,.06,.05,.13,.09,.21,.12,.32,.1,.66-.08,.76-.4,.1-.3,.14-.61,.15-.92,0-.09,0-.17,0-.26-.02-.35-.1-.7-.24-1.05,.77,.7,1.54,1.7,1.54,2.92,0,1.67-1.42,3.28-4,4.54Z"/><path class="cls-6" d="M44.31,165.25c-.74-.59-1.77-1.07-3-1.41-.04-.01-.09-.03-.13-.04-1.18-.31-2.52-.47-3.88-.47-1.98,0-3.89,.36-5.37,.99-1.51,.65-2.5,1.55-2.8,2.55-.23,.46-.25,.96-.05,1.45,.18,.44,.53,.88,1.05,1.28,1.23,1.08,3.36,1.81,5.83,2.01,.1,0,.2,.02,.29,.02,.35,.02,.71,.03,1.06,.03,2.17,0,4.22-.42,5.76-1.17,1.62-.79,2.51-1.86,2.5-3.01,0-.81-.44-1.58-1.28-2.24Zm-13.75,3.87s0,0-.01-.01c-.44-.34-.93-.83-.94-1.43-.02-.63,.55-1.09,1.04-1.4,.9-.57,1.99-.94,3.04-1.1,.69-.11,1.39-.12,2.09-.04,.38,.04,.76,.11,1.13,.2-.22-.05-.59,.06-.81,.11-.29,.06-.58,.14-.85,.25-.78,.31-1.48,.74-2.17,1.21-.36,.25-.71,.55-.93,.93-.63,1.08,.24,2.02,1.13,2.58,.07,.05,.14,.09,.22,.13-1.22-.33-2.24-.82-2.92-1.42Zm6.77-.45c-.19,0-.37,0-.55-.02-.67-.09-1.07-.21-1.11-.23-.77-.26-1.26-.68-1.26-1.09,0-.38,.39-.67,.62-.81,.57-.34,1.4-.54,2.29-.54,.97,0,1.88,.23,2.43,.62,0,0,0,0,0,0,.22,.16,.49,.41,.49,.72s-.28,.64-.77,.9c-.57,.29-1.33,.46-2.14,.46Zm5.47,1.25c-1.46,.71-3.4,1.1-5.47,1.1-.33,0-.66,0-.99-.03-.12-.03-.56-.16-1.11-.36-.66-.25-1.42-.6-1.96-1.01-.45-.34-.69-.69-.72-1.03,0-.03,0-.06,0-.09,.01-.17,.13-.38,.33-.6,.19-.2,.45-.41,.73-.61,.05-.03,.1-.07,.15-.1,0,.04,0,.08,0,.12,0,.71,.63,1.35,1.69,1.71,.4,.14,.82,.21,1.24,.26,.12,.01,.24,.03,.36,.05,1.22,.18,3.07,.46,5.01-.36,.17-.07,.24-.26,.17-.43,0-.02-.02-.03-.03-.05-.08-.13-.25-.19-.4-.12-.76,.32-1.5,.45-2.2,.49,.06-.03,.12-.05,.17-.08,.73-.38,1.12-.9,1.12-1.48,0-.47-.26-.9-.76-1.25,0,0,0,0,0,0-.09-.06-.98-.71-2.41-1.17-.61-.2-1.23-.33-1.87-.4-.65-.07-1.3-.07-1.95,0-.37,.04-.74,.11-1.1,.2,1.3-.45,2.87-.7,4.5-.7,1.3,0,2.58,.15,3.71,.45,.14,.04,.27,.08,.41,.12,.92,.31,1.66,.85,1.99,1.44,.11,.2,.17,.4,.17,.59,0,.12-.01,.23-.05,.34-.04,.13,0,.26,.1,.35,.03,.03,.07,.05,.11,.06,.17,.05,.35-.04,.41-.21,.05-.16,.08-.33,.08-.49,0-.05,0-.09,0-.14-.01-.19-.06-.38-.13-.56,.41,.37,.82,.91,.82,1.56,0,.9-.76,1.76-2.14,2.43Z"/><path class="cls-6" d="M179.39,36.74c-.08-.19-.27-.31-.48-.29-.2,.01-.37,.16-.42,.35-.05,.19,.02,.4,.18,.52,.16,.11,.38,.12,.54,0,.19-.12,.26-.37,.17-.58Z"/><path class="cls-6" d="M40.4,96.77l.43,1.16s.06,.07,.1,.07,.09-.03,.1-.07l.43-1.16c.35-.94,1.09-1.69,2.03-2.03l1.16-.43s.07-.06,.07-.1-.03-.09-.07-.1l-1.16-.43c-.94-.35-1.69-1.09-2.03-2.03l-.43-1.16s-.06-.07-.1-.07-.09,.03-.1,.07l-.43,1.16c-.35,.94-1.09,1.69-2.03,2.03l-1.16,.43s-.07,.06-.07,.1,.03,.09,.07,.1l1.16,.43c.94,.35,1.69,1.09,2.03,2.03Z"/><path class="cls-6" d="M93.87,48.81l-1.16-.43c-.94-.35-1.69-1.09-2.03-2.03l-.43-1.16s-.06-.07-.1-.07-.09,.03-.1,.07l-.43,1.16c-.35,.94-1.09,1.69-2.03,2.03l-1.16,.43s-.07,.06-.07,.1,.03,.09,.07,.1l1.16,.43c.94,.35,1.69,1.09,2.03,2.03l.43,1.16s.06,.07,.1,.07,.09-.03,.1-.07l.43-1.16c.35-.94,1.09-1.69,2.03-2.03l1.16-.43s.07-.06,.07-.1c0-.05-.03-.09-.07-.1Z"/><path class="cls-6" d="M208.15,79.35l-1.16-.43c-.94-.35-1.69-1.09-2.03-2.03l-.43-1.16s-.06-.07-.1-.07-.09,.03-.1,.07l-.43,1.16c-.35,.94-1.09,1.69-2.03,2.03l-1.16,.43s-.07,.06-.07,.1,.03,.09,.07,.1l1.16,.43c.94,.35,1.69,1.09,2.03,2.03l.43,1.16s.06,.07,.1,.07,.09-.03,.1-.07l.43-1.16c.35-.94,1.09-1.69,2.03-2.03l1.16-.43s.07-.06,.07-.1c0-.05-.03-.09-.07-.1Z"/><path class="cls-6" d="M241.28,102.89l-1.16-.43c-.94-.35-1.69-1.09-2.03-2.03l-.43-1.16s-.06-.07-.1-.07-.09,.03-.1,.07l-.43,1.16c-.35,.94-1.09,1.69-2.03,2.03l-1.16,.43s-.07,.06-.07,.1,.03,.09,.07,.1l1.16,.43c.94,.35,1.69,1.09,2.03,2.03l.43,1.16s.06,.07,.1,.07,.09-.03,.1-.07l.43-1.16c.35-.94,1.09-1.69,2.03-2.03l1.16-.43s.07-.06,.07-.1c0-.05-.03-.09-.07-.1Z"/><path class="cls-6" d="M257.52,190.35l-.79-.29c-.64-.23-1.15-.74-1.38-1.38l-.29-.79s-.04-.05-.07-.05-.06,.02-.07,.05l-.29,.79c-.23,.64-.74,1.15-1.38,1.38l-.79,.29s-.05,.04-.05,.07,.02,.06,.05,.07l.79,.29c.64,.23,1.15,.74,1.38,1.38l.29,.79s.04,.05,.07,.05,.06-.02,.07-.05l.29-.79c.23-.64,.74-1.15,1.38-1.38l.79-.29s.05-.04,.05-.07-.02-.06-.05-.07Z"/><path class="cls-6" d="M51.05,122.97l-.55-.2c-.45-.16-.8-.51-.96-.96l-.2-.55s-.03-.03-.05-.03-.04,.01-.05,.03l-.2,.55c-.16,.45-.51,.8-.96,.96l-.55,.2s-.03,.03-.03,.05,.01,.04,.03,.05l.55,.2c.45,.16,.8,.51,.96,.96l.2,.55s.03,.03,.05,.03,.04-.01,.05-.03l.2-.55c.16-.45,.51-.8,.96-.96l.55-.2s.03-.03,.03-.05-.01-.04-.03-.05Z"/><path class="cls-6" d="M206.19,210.83l-.55-.2c-.45-.16-.8-.51-.96-.96l-.2-.55s-.03-.03-.05-.03-.04,.01-.05,.03l-.2,.55c-.16,.45-.51,.8-.96,.96l-.55,.2s-.03,.03-.03,.05,.01,.04,.03,.05l.55,.2c.45,.16,.8,.51,.96,.96l.2,.55s.03,.03,.05,.03,.04-.01,.05-.03l.2-.55c.16-.45,.51-.8,.96-.96l.55-.2s.03-.03,.03-.05-.01-.04-.03-.05Z"/><path class="cls-6" d="M81.46,250.03l-.55-.2c-.45-.16-.8-.51-.96-.96l-.2-.55s-.03-.03-.05-.03-.04,.01-.05,.03l-.2,.55c-.16,.45-.51,.8-.96,.96l-.55,.2s-.03,.03-.03,.05,.01,.04,.03,.05l.55,.2c.45,.16,.8,.51,.96,.96l.2,.55s.03,.03,.05,.03,.04-.01,.05-.03l.2-.55c.16-.45,.51-.8,.96-.96l.55-.2s.03-.03,.03-.05-.01-.04-.03-.05Z"/><path class="cls-6" d="M97.49,283.91l-.55-.2c-.45-.16-.8-.51-.96-.96l-.2-.55s-.03-.03-.05-.03-.04,.01-.05,.03l-.2,.55c-.16,.45-.51,.8-.96,.96l-.55,.2s-.03,.03-.03,.05,.01,.04,.03,.05l.55,.2c.45,.16,.8,.51,.96,.96l.2,.55s.03,.03,.05,.03,.04-.01,.05-.03l.2-.55c.16-.45,.51-.8,.96-.96l.55-.2s.03-.03,.03-.05-.01-.04-.03-.05Z"/><path class="cls-6" d="M49.85,91.24l-.55-.2c-.45-.16-.8-.51-.96-.96l-.2-.55s-.03-.03-.05-.03-.04,.01-.05,.03l-.2,.55c-.16,.45-.51,.8-.96,.96l-.55,.2s-.03,.03-.03,.05,.01,.04,.03,.05l.55,.2c.45,.16,.8,.51,.96,.96l.2,.55s.03,.03,.05,.03,.04-.01,.05-.03l.2-.55c.16-.45,.51-.8,.96-.96l.55-.2s.03-.03,.03-.05c0-.02-.01-.04-.03-.05Z"/><path class="cls-6" d="M55.98,207.59l-.69-.25c-.56-.21-1.01-.65-1.21-1.21l-.26-.69s-.03-.04-.06-.04-.05,.02-.06,.04l-.25,.69c-.21,.56-.65,1.01-1.21,1.21l-.69,.26s-.04,.03-.04,.06,.02,.05,.04,.06l.69,.25c.56,.21,1.01,.65,1.21,1.21l.26,.69s.03,.04,.06,.04,.05-.02,.06-.04l.25-.69c.21-.56,.65-1,1.21-1.21l.69-.26s.04-.03,.04-.06-.02-.05-.04-.06Z"/><path class="cls-6" d="M91.39,247.74l-.69-.25c-.56-.21-1.01-.65-1.21-1.21l-.26-.69s-.03-.04-.06-.04-.05,.02-.06,.04l-.25,.69c-.21,.56-.65,1.01-1.21,1.21l-.69,.26s-.04,.03-.04,.06,.02,.05,.04,.06l.69,.25c.56,.21,1.01,.65,1.21,1.21l.26,.69s.03,.04,.06,.04,.05-.02,.06-.04l.25-.69c.21-.56,.65-1,1.21-1.21l.69-.26s.04-.03,.04-.06-.02-.05-.04-.06Z"/><path class="cls-6" d="M250.59,177.78l-.69-.25c-.56-.21-1.01-.65-1.21-1.21l-.26-.69s-.03-.04-.06-.04-.05,.02-.06,.04l-.25,.69c-.21,.56-.65,1.01-1.21,1.21l-.69,.26s-.04,.03-.04,.06,.02,.05,.04,.06l.69,.25c.56,.21,1.01,.65,1.21,1.21l.26,.69s.03,.04,.06,.04,.05-.02,.06-.04l.25-.69c.21-.56,.65-1,1.21-1.21l.69-.26s.04-.03,.04-.06-.02-.05-.04-.06Z"/><path class="cls-6" d="M88.93,239.92l-.69-.25c-.56-.21-1.01-.65-1.21-1.21l-.26-.69s-.03-.04-.06-.04-.05,.02-.06,.04l-.25,.69c-.21,.56-.65,1.01-1.21,1.21l-.69,.26s-.04,.03-.04,.06,.02,.05,.04,.06l.69,.25c.56,.21,1.01,.65,1.21,1.21l.26,.69s.03,.04,.06,.04,.05-.02,.06-.04l.25-.69c.21-.56,.65-1,1.21-1.21l.69-.26s.04-.03,.04-.06-.02-.05-.04-.06Z"/><g><path class="cls-9" d="M248.94,214.76h-1.06c-.58,0-1.06-.47-1.06-1.05v-1.06s-2.11,0-2.11,0v1.06c0,.58-.47,1.06-1.05,1.06h-1.06s0,2.11,0,2.11h1.06c.58,0,1.06,.47,1.06,1.05v1.06s2.11,0,2.11,0v-1.06c0-.58,.47-1.06,1.05-1.06h1.06s0-2.11,0-2.11Z"/><path class="cls-9" d="M221.53,242.28h-1.06c-.58,0-1.06-.47-1.06-1.05v-1.06s-2.11,0-2.11,0v1.06c0,.58-.47,1.06-1.05,1.06h-1.06s0,2.11,0,2.11h1.06c.58,0,1.06,.47,1.06,1.05v1.06s2.11,0,2.11,0v-1.06c0-.58,.47-1.06,1.05-1.06h1.06s0-2.11,0-2.11Z"/><path class="cls-11" d="M246.23,225.33l-.83-2.11c-.34-.74-.76-1.46-1.23-2.11l-1.8-2.11c-2.67-2.61-6.3-4.21-10.34-4.2-2.79,0-5.39,.77-7.6,2.13l-2.72,2.12c-.67,.64-1.26,1.35-1.79,2.12l-1.22,2.11c-.78,1.63-1.26,3.4-1.38,5.28v2.11c.07,1.08,.28,2.15,.58,3.17l.83,2.11c.34,.74,.76,1.46,1.23,2.11l1.8,2.11c2.67,2.61,6.3,4.21,10.34,4.2,2.79,0,5.39-.77,7.6-2.13l2.72-2.12c.67-.64,1.26-1.35,1.79-2.12l1.22-2.11c.78-1.63,1.26-3.4,1.38-5.28v-2.11c-.07-1.08-.28-2.15-.58-3.17Z"/><g><path class="cls-9" d="M242.38,219h-7.52c-1.44,.02-2.81-.44-4.08-1.12-1.16-.63-2.49-.97-3.83-.96h-2.51c-.99,.6-1.9,1.3-2.72,2.12h5.24c1.23-.01,2.43,.37,3.45,1.04-1.01,.68-2.22,1.06-3.44,1.06h-7.03c-.48,.69-.88,1.39-1.22,2.13l8.26-.02c1.33,0,2.66-.34,3.82-.98,1.27-.68,2.64-1.15,4.07-1.15l9.32-.02-1.8-2.11Z"/><path class="cls-9" d="M244.18,221.11l-1.8-2.11c.68,.63,1.27,1.35,1.8,2.11Z"/><path class="cls-9" d="M215.17,228.56h2.15s0,2.11,0,2.11h-2.15s0-2.11,0-2.11Z"/><path class="cls-9" d="M246.81,228.5h2.15s0,2.11,0,2.11h-2.15s0-2.11,0-2.11Z"/><path class="cls-9" d="M237.17,238.02c-1.23,0-2.43,.38-3.44,1.06,1.02,.67,2.22,1.05,3.45,1.05h5.24c-.82,.82-1.73,1.51-2.72,2.11h-2.51c-1.33,0-2.66-.33-3.83-.96-1.27-.67-2.64-1.14-4.08-1.13h-7.52c-.68-.62-1.27-1.34-1.8-2.09l9.32-.02c1.44,0,2.81-.47,4.07-1.15,1.16-.64,2.49-.98,3.82-.98l8.26-.02c-.34,.74-.74,1.44-1.22,2.11h-7.03Z"/><path class="cls-9" d="M246.23,225.33l-7.84,.02v-2.11s7.01-.01,7.01-.01c.34,.68,.62,1.39,.83,2.11h0Z"/><path class="cls-9" d="M225.74,233.82v2.11s-7.01,.01-7.01,.01c-.34-.68-.62-1.39-.83-2.11l7.84-.02Z"/></g><path class="cls-16" d="M246.85,229.55c0,.36-.02,.72-.04,1.06l-13.88,.03c-.44,1.23-1.6,2.12-2.97,2.12s-2.54-.88-2.98-2.11l-9.65,.02c-.02-.36-.04-.7-.04-1.06s.02-.72,.04-1.06l9.65-.02c.44-1.23,1.6-2.12,2.97-2.12s2.54,.88,2.98,2.11l13.88-.03c.02,.36,.04,.7,.04,1.06Z"/></g><path class="cls-17" d="M77.65,85.57c-5.24,8.51-6.83,18.09-10.01,37.24-.96,5.76-4.35,27.16-3.38,54.67,.35,9.9,1.19,18.59,5.48,28.29,2.06,4.65,4.44,10.05,9.33,14.71,11.43,10.91,28.23,9.95,40.73,9.23,4.81-.28,21.28-1.63,40.3-11.32,18.06-9.21,29.88-21.6,36.77-30.31,2.41,.93,7.7,2.58,13.96,1.14,12.85-2.97,17.36-16.13,17.8-17.48,1.73-5.33,3.19-15.68-1.59-18.99-4.34-3.01-10.51,2.07-18.23-2.29-.84-.48-2.4-1.37-3.88-3.09-4.71-5.46-3.76-13.56-2.75-21.32,.55-4.26,1.3-7.01,1.54-8.14,3.18-15.09-19.75-40.66-47.79-52.64-11.44-4.89-26.96-11.52-45.37-6.12-19.91,5.84-30.12,21.89-32.9,26.43Z"/><path class="cls-12" d="M76.42,116.84c-2.5,9.51,.94,10.88,1.7,11.37,1.21,.77,2.84,.18,3.36,0,4.66-1.68,5.86-9.14,5.4-13.84-.19-1.98-.45-4.6-2.34-5.55-1.6-.81-3.76-.09-5.04,1.04-1.17,1.04-1.82,2.14-3.09,6.98Z"/><path class="cls-12" d="M132.78,124.75c-2.5,9.51,.94,10.88,1.7,11.37,1.21,.77,2.84,.18,3.36,0,4.66-1.68,5.86-9.14,5.4-13.84-.19-1.98-.45-4.6-2.34-5.55-1.6-.81-3.76-.09-5.04,1.04-1.17,1.04-1.82,2.14-3.09,6.98Z"/><path class="cls-13" d="M143.42,147.99c-2.74,6.77,1.34,16.61,8.18,19.89,2.91,1.39,5.62,1.26,8.14,1.15,3.42-.16,12.87-.6,16.66-7.66,3.16-5.89,.95-13.73-3.39-17.96-8.11-7.88-25.67-5.09-29.59,4.58Z"/><path class="cls-12" d="M77.39,178.98c.33-1.8,6.49-3.83,11.09-3.1,5.38,.85,24.23,5.25,23.86,7.15-.37,1.9-18.58,8.76-23.83,7.59-4.48-1-11.45-9.83-11.12-11.63Z"/><path class="cls-12" d="M77.38,145.66c-.56,1.12,3.57,5.9,7.38,4.9,.97-.25,2.49-1.04,2.45-1.94-.1-2.17-9.13-4.35-9.83-2.95Z"/><path class="cls-12" d="M78.54,144.36c-.47-.59,16.39-12.86,19.08-25.75,.21-1.01,.61-3.37,.64-3.36,.04,0-.29,7.3-2.82,13.32-4.77,11.37-16.54,16.25-16.9,15.8Z"/><circle class="cls-12" cx="106.81" cy="139.81" r=".88"/><circle class="cls-12" cx="98.31" cy="142.13" r=".88"/><circle class="cls-12" cx="77.92" cy="139.87" r=".88"/><circle class="cls-12" cx="80.39" cy="134.56" r=".88"/><circle class="cls-12" cx="101.94" cy="135.4" r=".88"/><path class="cls-12" d="M131.57,101.75c.19-.44,1.56-2.75,2.19-3.24,2.97-2.29,6.09,4.19,14.61,5.27,4.85,.61,8.74-.28,10.47,2.31,.41,.61-2.65,1.8-2.58,2.24"/><path class="cls-12" d="M97.27,97.28c-.08-.42-.82-2.66-1.26-3.19-2.05-2.48-5.71,2.72-12.91,2.32-4.09-.23-7.14-1.63-9,.37-.44,.47,1.88,2,1.74,2.38"/><path class="cls-13" d="M66.21,133.53s-2.52,19.23-1.8,21.37,6.81-4.53,7.03-7.69c.76-10.58-5.23-13.68-5.23-13.68Z"/><path d="M187.02,51.27c-5.41-9.1-77.3,8.16-88.66,24.6-5.56,.03,82.98-24.58,88.68-16.8,2.95,4.03-.01-7.8-.01-7.8Z"/><path d="M214.32,115.32c4.32,1.1-58.62,48.64-79.73,51.75-3.82,4.28,75.84-47.36,73.68-57.12-1.12-5.06,6.05,5.37,6.05,5.37Z"/><path d="M229.34,98.09c6.9,3.58-62.95,37.74-92.58,31.78-3.57,3.97,88.96-27.69,81.06-41.99-4.09-7.41,11.52,10.21,11.52,10.21Z"/><path d="M216.02,203.96c17.82,1.02-42,45.82-90.68,51.66-2.51,4.33,89.21-48.25,77.1-60.05-6.31-6.15,13.58,8.39,13.58,8.39Z"/><path class="cls-5" d="M288.61,289.46s-19.36,12.08-19.73,19.77c0,0,20.57,11.92,30.69,33.22,10.12,21.3,16.24,42.23,16.24,42.23l-.09-44.97-27.11-50.25Z"/><g><path class="cls-7" d="M231.48,77.63s.07,.07,.1,.1c-.03-.03-.07-.07-.1-.1Z"/><path class="cls-7" d="M231.93,78.1c.06,.07,.13,.14,.19,.21-.06-.07-.12-.14-.19-.21Z"/><path class="cls-7" d="M231.61,77.76c.06,.06,.13,.13,.19,.2-.06-.07-.13-.13-.19-.2Z"/><path class="cls-7" d="M230.15,76.54s.07,.05,.1,.07c-.03-.02-.07-.05-.1-.07Z"/><path class="cls-7" d="M231.13,77.3s.07,.06,.1,.09c-.03-.03-.07-.06-.1-.09Z"/><path class="cls-7" d="M230.33,76.66c.05,.04,.1,.08,.15,.11-.05-.04-.1-.08-.15-.11Z"/><path class="cls-7" d="M232.13,78.32s.06,.08,.1,.12c-.03-.04-.06-.08-.1-.12Z"/><path class="cls-7" d="M230.54,76.82c.07,.06,.15,.11,.22,.17-.07-.06-.14-.11-.22-.17Z"/><path class="cls-7" d="M230.91,77.12c.07,.06,.14,.12,.2,.17-.07-.06-.13-.12-.2-.17Z"/><path class="cls-7" d="M230.76,77s.07,.06,.1,.08c-.03-.03-.07-.06-.1-.08Z"/><path class="cls-7" d="M231.81,77.97s.07,.07,.1,.11c-.03-.04-.07-.07-.1-.11Z"/><path class="cls-7" d="M225.75,94.11c-.16,.03-.33,.05-.5,.07,.17-.02,.33-.04,.5-.07Z"/><path class="cls-7" d="M225.12,94.19s-.07,0-.11,.01c.04,0,.07,0,.11-.01Z"/><path class="cls-7" d="M225.98,94.07c-.06,.01-.11,.02-.17,.03,.06,0,.11-.02,.17-.03Z"/><path class="cls-7" d="M224.88,94.21s-.07,0-.11,0c.04,0,.07,0,.11,0Z"/><path class="cls-7" d="M224.62,94.23s-.07,0-.1,0c.03,0,.07,0,.1,0Z"/><path class="cls-7" d="M226.22,94.02c-.06,.01-.12,.02-.18,.03,.06-.01,.12-.02,.18-.03Z"/><path class="cls-7" d="M234.37,83.6s0,.06,0,.09c0-.03,0-.06,0-.09Z"/><path class="cls-7" d="M234.39,83.9s0,.05,0,.08c0-.03,0-.05,0-.08Z"/><path class="cls-7" d="M234.4,84.13s0,.05,0,.07c0-.02,0-.05,0-.07Z"/><path class="cls-7" d="M234.34,83.36s0,.08,.01,.12c0-.04,0-.08-.01-.12Z"/><path class="cls-7" d="M229.33,76.03s.06,.03,.09,.05c-.03-.02-.06-.03-.09-.05Z"/><path class="cls-7" d="M226.57,74.95s.04,0,.06,.01c-.02,0-.04,0-.06-.01Z"/><path class="cls-7" d="M226.3,74.89s.04,0,.05,.01c-.02,0-.04,0-.05-.01Z"/><path class="cls-7" d="M227.06,75.08s.04,.01,.07,.02c-.02,0-.04-.01-.07-.02Z"/><path class="cls-7" d="M226.07,74.84s.03,0,.05,.01c-.02,0-.03,0-.05-.01Z"/><path class="cls-7" d="M229.95,76.41s.09,.06,.13,.09c-.04-.03-.08-.06-.13-.09Z"/><path class="cls-7" d="M227.29,75.15s.04,.01,.05,.02c-.02,0-.04-.01-.05-.02Z"/><path class="cls-7" d="M225.05,74.7s.02,0,.03,0c-.01,0-.02,0-.03,0Z"/><path class="cls-7" d="M224.52,74.66s.01,0,.02,0c0,0-.01,0-.02,0Z"/><path class="cls-7" d="M225.56,74.76s.03,0,.04,0c-.01,0-.03,0-.04,0Z"/><path class="cls-7" d="M225.8,74.79s.04,0,.06,0c-.02,0-.04,0-.06,0Z"/><path class="cls-7" d="M226.8,75.01s.04,0,.05,.01c-.02,0-.04,0-.05-.01Z"/><path class="cls-7" d="M227.54,75.23s.05,.02,.07,.02c-.02,0-.05-.02-.07-.02Z"/><path class="cls-7" d="M228.68,75.69s.07,.03,.1,.05c-.03-.02-.07-.03-.1-.05Z"/><path class="cls-7" d="M228.9,75.8s.06,.03,.09,.04c-.03-.01-.06-.03-.09-.04Z"/><path class="cls-7" d="M229.75,76.28s.06,.04,.09,.06c-.03-.02-.06-.04-.09-.06Z"/><path class="cls-7" d="M229.54,76.15s.08,.05,.12,.07c-.04-.02-.08-.05-.12-.07Z"/><path class="cls-7" d="M229.12,75.91s.08,.04,.11,.06c-.04-.02-.08-.04-.11-.06Z"/><path class="cls-7" d="M227.76,75.31s.04,.01,.05,.02c-.02,0-.04-.01-.05-.02Z"/><path class="cls-7" d="M228.46,75.59s.05,.02,.08,.04c-.03-.01-.05-.02-.08-.04Z"/><path class="cls-7" d="M228,75.4s.05,.02,.08,.03c-.03-.01-.05-.02-.08-.03Z"/><path class="cls-7" d="M228.23,75.49s.06,.02,.09,.04c-.03-.01-.06-.02-.09-.04Z"/><path class="cls-7" d="M231.46,77.62c-.06-.06-.13-.12-.2-.19,.07,.06,.13,.12,.2,.19Z"/><path class="cls-7" d="M232.55,78.85c.05,.07,.1,.14,.15,.2-.09-.12-.17-.24-.27-.36,.04,.05,.08,.1,.12,.16,0,0,0,0,0,0Z"/><path class="cls-7" d="M224.02,87.95c-1.42,0-2.78-.08-4.02-.24,.09,.49,.22,.98,.38,1.44-2.53-.29-4.62-.88-5.87-1.64,0,0,0,0,0,0-.04-.02-.08-.05-.12-.07,0,0-.01,0-.02-.01-.04-.03-.08-.05-.12-.08,0,0,0,0-.01,0-.03-.02-.06-.05-.1-.07,0,0-.02-.01-.03-.02-.03-.03-.07-.05-.1-.08h0c.33,1.07,.84,2.06,1.51,2.94,.52,.21,1.11,.41,1.77,.58,.23,.06,.47,.12,.71,.17,.13,.03,.27,.06,.41,.08,0,0,0,0,0,0,0,0,0-.01-.01-.03-.02-.05-.07-.14-.11-.26-.01-.03-.03-.07-.04-.11-.01-.04-.03-.07-.04-.11-.01-.03-.02-.07-.03-.1-.03-.1-.04-.2-.04-.29,0-.02,0-.03,0-.05,0-.03,0-.06,.01-.09,0-.02,.02-.05,.03-.07,0,0,.01-.02,.02-.03,.05-.06,.13-.1,.24-.1,.02,0,.05,0,.07,0,0,0,.01,0,.02,0,.02,0,.04,0,.05,0,0,0,.02,0,.03,0,.02,0,.03,0,.05,0,.01,0,.02,0,.03,0,.01,0,.03,0,.04,0,.01,0,.02,0,.03,0,.01,0,.03,0,.04,0,.01,0,.02,0,.04,0,.01,0,.03,0,.04,0,.01,0,.02,0,.04,0,.01,0,.03,0,.04,0,.01,0,.03,0,.04,0,.01,0,.03,0,.04,0,.01,0,.03,0,.04,0,.01,0,.03,0,.04,0,.01,0,.03,0,.04,.01,.01,0,.03,0,.04,.01,.01,0,.03,0,.04,.01,.01,0,.03,0,.04,.01,.01,0,.03,0,.04,.01,.01,0,.03,0,.04,.01,.01,0,.03,0,.04,.01,.01,0,.03,0,.04,.01,.01,0,.03,0,.04,.01,.01,0,.03,0,.04,.01,.01,0,.03,0,.04,.01,.01,0,.03,0,.04,.01,.01,0,.03,0,.04,.01,.01,0,.03,.01,.04,.02,.01,0,.02,0,.04,.01,.01,0,.03,.01,.04,.02,.01,0,.02,0,.04,.01,.02,0,.03,.01,.05,.02,.01,0,.02,0,.03,.01,.02,0,.03,.01,.05,.02,.01,0,.02,0,.03,.01,.02,0,.03,.01,.05,.02,.01,0,.02,0,.03,.01,.02,0,.04,.01,.05,.02,0,0,.02,0,.03,.01,.02,0,.04,.02,.06,.02,0,0,.02,0,.03,.01,.02,0,.04,.02,.06,.03,0,0,.01,0,.02,0,.02,0,.04,.02,.07,.03,0,0,.01,0,.02,0,.02,.01,.05,.02,.07,.03,0,0,0,0,0,0,.18,.08,.36,.17,.55,.25-.25-.45-.46-.92-.63-1.4,1.14,.13,2.36,.2,3.64,.2,1.17,0,2.29-.06,3.34-.18l1.36-.18c2.39-.38,4.29-1.04,5.29-1.85-.32,1.07-.83,2.06-1.49,2.95-1.97,.82-5.04,1.41-8.49,1.37-1.04-.01-2.06-.46-3.02-.9,.46,.83,1.03,1.6,1.71,2.27,0,0,0,0,0,0,0,0,0,0,0,0,.43,.02,.86,.02,1.3,.02,2.41,0,4.62-.27,6.41-.7-1.21,.9-2.63,1.55-4.19,1.87,4.67-.97,8.17-4.9,8.16-9.59,0,.33-.02,.65-.05,.97-1.29,1.46-5.43,2.54-10.34,2.55Z"/><path class="cls-7" d="M224.29,74.65s-.04,0-.06,0c0,0,0,0,0,0,.02,0,.03,0,.05,0Z"/><path class="cls-7" d="M232.35,78.59s0,0,0,.01c.02,.02,.04,.05,.06,.07-.06-.08-.12-.15-.18-.23,.04,.05,.08,.1,.12,.15,0,0,0,0,0,0Z"/><path class="cls-7" d="M224.82,74.68s-.03,0-.04,0c0,0,.01,0,.02,0,0,0,.01,0,.02,0Z"/><path class="cls-7" d="M232.88,79.33c.07,.11,.14,.22,.21,.33-1.91,.98-5.26,1.63-9.08,1.64-.96,0-1.88-.04-2.77-.11-.44,.73-.79,1.51-1.03,2.34,0,0,0,0,0,0,0,0,0,0,0,0,.36,.04,.73,.08,1.11,.11h0c1.98,.12,3.27,.91,4.49,1.11,.33,.05,.56-.28,.38-.54l-.37-.52c3.69-.21,6.74-1.03,8.14-2.13,.18,.55,.31,1.12,.38,1.71-.19-1.54-.77-2.97-1.63-4.2,.06,.08,.12,.17,.17,.25,0,0,0,0,0,0Zm-8.35,4.46c-.29,0-.52-.15-.52-.33s.23-.33,.52-.33,.52,.15,.52,.33-.23,.33-.52,.33Z"/><path class="cls-7" d="M225.34,74.73s-.04,0-.06,0c.02,0,.03,0,.05,0,0,0,0,0,0,0Z"/><path class="cls-7" d="M224.28,94.24s.06,0,.08,0c-.03,0-.06,0-.08,0Z"/><path class="cls-4" d="M222.02,94.06c-.06-.01-.12-.02-.18-.03,.06,.01,.12,.02,.18,.03Z"/><path class="cls-4" d="M223.78,94.24s-.06,0-.08,0c.03,0,.06,0,.08,0Z"/><path class="cls-4" d="M222.24,94.1c-.06,0-.11-.02-.17-.03,.06,0,.11,.02,.17,.03Z"/><path class="cls-4" d="M222.8,94.18c-.17-.02-.33-.04-.5-.07,.17,.03,.33,.05,.5,.07Z"/><path class="cls-4" d="M223.29,94.22s-.07,0-.11,0c.04,0,.07,0,.11,0Z"/><path class="cls-4" d="M223.04,94.2s-.07,0-.11,0c.04,0,.07,0,.11,0Z"/><path class="cls-4" d="M223.53,94.23s-.07,0-.1,0c.03,0,.07,0,.1,0Z"/><path class="cls-4" d="M218.36,92.67c-.16-.1-.32-.2-.48-.31-.02-.01-.03-.02-.05-.04-.08-.05-.15-.11-.22-.16,0,0,0,0,0,0h0s0,0,0,0c.08,.02,.17,.04,.25,.06,.01,0,.03,0,.04,0,.09,.02,.18,.04,.27,.06,0,0,0,0,0,0,1.34,.28,2.88,.46,4.54,.53-.68-.67-1.26-1.44-1.71-2.27-.18-.08-.36-.17-.54-.25,0,0,0,0,0,0-.02-.01-.05-.02-.07-.03,0,0-.01,0-.02,0-.02,0-.04-.02-.07-.03,0,0-.01,0-.02,0-.02,0-.04-.02-.06-.03,0,0-.02,0-.03-.01-.02,0-.04-.02-.06-.02,0,0-.02,0-.03-.01-.02,0-.04-.01-.05-.02-.01,0-.02,0-.03-.01-.02,0-.03-.01-.05-.02-.01,0-.02,0-.03-.01-.02,0-.03-.01-.05-.02-.01,0-.02,0-.03-.01-.02,0-.03-.01-.05-.02-.01,0-.02,0-.04-.01-.02,0-.03-.01-.04-.02-.01,0-.02,0-.04-.01-.01,0-.03-.01-.04-.02-.01,0-.03,0-.04-.01-.01,0-.03,0-.04-.01-.01,0-.03,0-.04-.01-.01,0-.03,0-.04-.01-.01,0-.03,0-.04-.01-.01,0-.03,0-.04-.01-.01,0-.03,0-.04-.01-.01,0-.03,0-.04-.01-.01,0-.03,0-.04-.01-.01,0-.03,0-.04-.01-.01,0-.03,0-.04-.01-.01,0-.03,0-.04-.01-.01,0-.03,0-.04-.01-.01,0-.03,0-.04,0-.01,0-.03,0-.04,0-.01,0-.03,0-.04,0-.01,0-.03,0-.04,0-.01,0-.03,0-.04,0-.01,0-.02,0-.04,0-.01,0-.03,0-.04,0-.01,0-.02,0-.04,0-.01,0-.03,0-.04,0-.01,0-.02,0-.03,0-.01,0-.03,0-.04,0-.01,0-.02,0-.03,0-.02,0-.03,0-.05,0,0,0-.02,0-.03,0-.02,0-.04,0-.05,0,0,0-.01,0-.02,0-.02,0-.05,0-.07,0-.12,0-.2,.04-.24,.1,0,0-.01,.02-.02,.03-.01,.02-.02,.04-.03,.07,0,.03-.01,.06-.01,.09,0,.02,0,.03,0,.05,0,.09,.02,.19,.04,.29,0,.04,.02,.07,.03,.1,.01,.04,.02,.08,.04,.11,.01,.04,.03,.07,.04,.11,.05,.12,.09,.21,.11,.26,0,.01,.01,.02,.01,.03,0,0,0,0,0,0-.14-.03-.28-.06-.41-.08-.24-.05-.48-.11-.71-.17-.66-.17-1.25-.36-1.77-.58-.67-.88-1.18-1.87-1.51-2.94h0s.07,.05,.1,.08c0,0,.02,.01,.03,.02,.03,.02,.06,.05,.1,.07,0,0,0,0,.01,0,.04,.03,.08,.05,.12,.08,0,0,.01,0,.02,.01,.04,.02,.08,.05,.12,.07,0,0,0,0,0,0,1.25,.76,3.34,1.35,5.87,1.64-.16-.47-.29-.95-.38-1.44-2.67-.34-4.8-1.03-5.92-1.88,0,0,0,0-.01,0-.03-.03-.07-.05-.1-.08,0,0-.01,0-.02-.01-.03-.03-.07-.06-.1-.09,0,0,0,0-.01-.01-.03-.02-.05-.05-.08-.07,0,0-.02-.02-.02-.02-.03-.03-.06-.06-.08-.09,0,0,0,0,0,0h0c-.03-.32-.05-.64-.05-.97,0,4.69,3.52,8.61,8.19,9.56-1.24-.25-2.39-.71-3.42-1.34,0,0-.01,0-.02-.01Zm1.85-2.01c.42,.23,.72,.51,.7,.98s-2.02-.49-2.08-.98,.86-.29,1.39,0Z"/><path class="cls-4" d="M224.61,74.67s.08,0,.12,0c-.04,0-.08,0-.12,0Z"/><path class="cls-4" d="M223.99,74.65c.06,0,.12,0,.19,0-.06,0-.12,0-.19,0Z"/><path class="cls-4" d="M223.23,74.68s.1,0,.15,0c-.05,0-.1,0-.15,0Z"/><path class="cls-4" d="M223.99,74.65c-.06,0-.12,0-.18,0,0,0,.02,0,.03,0,.05,0,.1,0,.16,0Z"/><path class="cls-4" d="M232.88,79.33s0,0,0,0c-.06-.09-.11-.17-.17-.25,0,0,0-.01-.01-.02-.05-.07-.1-.14-.15-.2,.12,.16,.22,.32,.33,.48Z"/><path class="cls-4" d="M228.64,75.68s0,0,.01,0c.03,.02,.07,.03,.1,.05,.03,.01,.05,.02,.08,.04,.02,0,.04,.02,.05,.03,.04,.02,.08,.04,.13,.06,0,0,0,0,.01,0,.02,.01,.05,.02,.07,.04,0,0,.02,0,.03,.01,.21,.11,.42,.23,.62,.36,0,0,0,0,0,0-.3,.01-.59,.04-.88,.07-.21,.04-.43,.07-.65,.1-2.41,.45-4.51,1.68-6.01,3.4,0,0,0,0,0,0,0,0,0,0,0,0,.58,.03,1.18,.05,1.78,.04,.75,0,1.49-.03,2.2-.08,.14,0,.27-.02,.4-.03l1.27-.13c1.77-.22,3.31-.6,4.48-1.07-.04-.05-.08-.1-.12-.15,0,0,0,0,0,0-.03-.04-.06-.08-.1-.12,0,0,0-.01-.01-.02-.06-.07-.12-.14-.19-.21,0,0-.01-.01-.02-.02-.03-.04-.07-.07-.1-.11,0,0,0,0-.01-.01-.06-.07-.13-.13-.19-.2,0,0-.02-.02-.03-.03-.03-.03-.07-.07-.1-.1,0,0,0,0-.01-.01-.06-.06-.13-.12-.2-.19-.01-.01-.02-.02-.04-.03-.03-.03-.07-.06-.1-.09,0,0,0,0-.01-.01-.07-.06-.13-.12-.2-.17-.02-.01-.03-.03-.05-.04-.03-.03-.07-.06-.1-.08,0,0,0,0,0,0-.07-.06-.14-.11-.22-.17-.02-.02-.04-.03-.06-.05-.05-.04-.1-.08-.15-.11-.03-.02-.05-.04-.08-.05-.03-.02-.07-.05-.1-.07-.02-.02-.05-.03-.07-.05-.04-.03-.08-.06-.13-.09-.04-.02-.07-.05-.11-.07-.03-.02-.06-.04-.09-.06-.03-.02-.06-.04-.09-.05-.04-.02-.08-.05-.12-.07-.04-.02-.08-.05-.12-.07-.03-.02-.06-.03-.09-.05-.03-.02-.07-.04-.1-.06-.04-.02-.08-.04-.11-.06-.04-.02-.09-.05-.13-.07-.03-.01-.06-.03-.09-.04-.04-.02-.08-.04-.12-.06-.03-.02-.07-.03-.1-.05-.05-.02-.09-.04-.14-.06-.03-.01-.05-.02-.08-.04-.05-.02-.1-.04-.15-.06-.03-.01-.06-.02-.09-.04-.05-.02-.1-.04-.15-.06-.03-.01-.05-.02-.08-.03-.06-.02-.12-.05-.19-.07-.02,0-.04-.01-.05-.02-.05-.02-.1-.04-.15-.05-.02,0-.05-.02-.07-.02-.06-.02-.13-.04-.2-.06-.02,0-.04-.01-.05-.02-.05-.02-.11-.03-.16-.05-.02,0-.04-.01-.07-.02-.07-.02-.14-.04-.2-.06-.02,0-.04,0-.05-.01-.06-.01-.11-.03-.17-.04-.02,0-.04,0-.06-.01-.07-.02-.14-.03-.21-.05-.02,0-.04,0-.05-.01-.06-.01-.12-.03-.18-.04-.02,0-.03,0-.05-.01-.07-.01-.15-.03-.22-.04-.02,0-.04,0-.06,0-.06-.01-.13-.02-.19-.03-.01,0-.03,0-.04,0-.07-.01-.15-.02-.22-.03,1.17,.14,2.29,.47,3.3,.95Z"/><path class="cls-4" d="M232.54,78.85c-.04-.05-.08-.11-.12-.16,0,0,0-.01-.01-.02-.02-.02-.04-.05-.06-.07,.06,.08,.13,.16,.19,.25Z"/><path class="cls-4" d="M224.55,74.66s0,0,0,0c0,0-.01,0-.02,0-.03,0-.06,0-.09,0,.04,0,.08,0,.12,0Z"/><path class="cls-4" d="M224.93,74.69s-.08,0-.11,0c0,0-.01,0-.02,0,.04,0,.09,0,.13,.01Z"/><path class="cls-4" d="M225.33,74.73s-.03,0-.05,0c-.04,0-.08,0-.12-.01,.06,0,.12,.01,.17,.02Z"/><path class="cls-4" d="M225.12,74.71s-.03,0-.05,0c-.01,0-.02,0-.03,0-.02,0-.04,0-.07,0,.05,0,.1,0,.15,.01Z"/><path class="cls-4" d="M224.36,74.66s-.05,0-.08,0c-.02,0-.03,0-.05,0,.04,0,.09,0,.13,0Z"/><path class="cls-4" d="M223.75,74.65s0,0,0,0c-.02,0-.03,0-.05,0-.03,0-.05,0-.08,0,.04,0,.09,0,.13,0Z"/><path class="cls-4" d="M223.57,74.66s-.06,0-.1,0c-.01,0-.03,0-.04,0,.04,0,.09,0,.13,0Z"/><path class="cls-3" d="M223.99,74.65c-.05,0-.1,0-.16,0,.05,0,.1,0,.16,0Z"/><path class="cls-3" d="M229.02,75.86s-.08-.04-.13-.06c.04,.02,.08,.04,.13,.06Z"/><path class="cls-3" d="M229.76,76.28s0,0,0,0c-.2-.13-.41-.25-.62-.36,0,0-.02,0-.03-.01-.02-.01-.05-.02-.07-.04,.21,.11,.42,.23,.62,.35-.25,.05-.5,.1-.77,.14,.29-.04,.58-.06,.88-.07Z"/><path class="cls-3" d="M228.66,75.68s0,0-.01,0c0,0,0,0,.01,0Z"/><path class="cls-3" d="M228.84,75.77s-.05-.02-.08-.04c.03,.01,.05,.02,.08,.04Z"/><path class="cls-3" d="M215.88,78.71s.08,.03,.12,.04c.02,0,.05,.02,.07,.02,.04,.01,.08,.03,.12,.04,.02,0,.05,.02,.07,.02,.04,.01,.08,.03,.13,.04,.02,0,.04,.01,.06,.02,.06,.02,.12,.04,.19,.06,.03,0,.05,.02,.08,.02,.04,.01,.08,.02,.11,.03,.03,0,.07,.02,.1,.03,.03,0,.07,.02,.1,.03,.04,.01,.07,.02,.11,.03,.03,0,.06,.02,.09,.02,.04,.01,.08,.02,.12,.03,.02,0,.04,.01,.06,.02,.16,.04,.33,.08,.5,.12,.01,0,.03,0,.04,0,.06,.01,.11,.02,.17,.04,.01,0,.03,0,.04,0,.06,.01,.12,.02,.18,.04,0,0,0,0,0,0,1.16,.23,2.47,.39,3.87,.47,1.5-1.72,3.61-2.95,6.01-3.4-1.3,.18-2.73,.29-4.23,.29-2.07,0-4.01-.18-5.65-.51,.69-.42,1.43-.77,2.22-1.03-.09,.03-.19,.06-.28,.1-.05,.02-.11,.04-.16,.06-.14,.05-.27,.11-.4,.16-.05,.02-.09,.04-.14,.06-.17,.07-.33,.15-.49,.23,0,0-.02,0-.02,.01-.18,.09-.35,.19-.53,.29-.01,0-.03,.02-.04,.02-.15,.09-.3,.18-.45,.28-.03,.02-.06,.04-.09,.06-.13,.09-.26,.18-.39,.28-.03,.02-.05,.04-.08,.06-.46,.35-.9,.74-1.29,1.16-.02,.02-.03,.03-.04,.05-.12,.13-.23,.25-.34,.39-.02,.02-.03,.04-.05,.06-.04,.05-.08,.1-.12,.16,.06,.02,.11,.04,.17,.07,.02,0,.04,.01,.06,.02Z"/><path class="cls-3" d="M221.46,74.95s-.03,0-.05,.01c-.19,.05-.38,.1-.57,.16-.04,.01-.09,.03-.13,.04,0,0,0,0-.01,0,.26-.08,.53-.16,.81-.22-.01,0-.03,0-.04,0Z"/><path class="cls-8" d="M233.08,79.66c-.07-.11-.14-.22-.21-.33-.11-.16-.21-.32-.33-.48,0,0,0,0,0,0-.06-.08-.12-.16-.19-.25,0,0,0,0,0-.01,0,0,0,0,0,0-1.18,.47-2.71,.84-4.48,1.07l-1.27,.13c-.13,.01-.27,.02-.4,.03-.71,.05-1.44,.08-2.2,.08-.61,0-1.2-.01-1.78-.04-.36,.42-.69,.86-.98,1.33,0,0-.02,0-.03,0,0,0,.02,0,.03,0,.88,.07,1.81,.11,2.77,.11,3.82,0,7.17-.66,9.08-1.64Z"/><path class="cls-8" d="M215.74,80.06s-.04-.02-.06-.02c.02,0,.04,.02,.06,.02Z"/><path class="cls-8" d="M215.5,79.96s0,0,0,0c0,0,0,0,0,0Z"/><path class="cls-8" d="M215.31,79.88s-.04-.02-.05-.02c.02,0,.04,.02,.05,.02Z"/><path class="cls-8" d="M219.38,80.97s-.05,0-.07-.01c.02,0,.05,0,.07,.01Z"/><path class="cls-8" d="M215.94,80.13s-.04-.02-.06-.02c.02,0,.04,.02,.06,.02Z"/><path class="cls-8" d="M219.08,80.92s-.06-.01-.1-.02c.03,0,.06,.01,.1,.02Z"/><path class="cls-8" d="M218.8,80.87s-.06-.01-.09-.02c.03,0,.06,.01,.09,.02Z"/><path class="cls-8" d="M214.92,79.7s0,0,0,0c0,0,0,0,0,0h0Z"/><path class="cls-8" d="M218.21,80.76s-.06-.01-.09-.02c.03,0,.06,.01,.09,.02Z"/><path class="cls-8" d="M217.65,80.64s-.03,0-.04,0c.01,0,.03,0,.04,0Z"/><path class="cls-8" d="M217.95,80.7s-.06-.01-.09-.02c.03,0,.06,.01,.09,.02Z"/><path class="cls-8" d="M218.49,80.82s-.04,0-.05-.01c.02,0,.04,0,.05,.01Z"/><path class="cls-8" d="M217.39,80.57s-.05-.01-.08-.02c.03,0,.05,.01,.08,.02Z"/><path class="cls-8" d="M219.71,81.02s-.07,0-.1-.01c.03,0,.07,0,.1,.01Z"/><path class="cls-8" d="M216.15,80.21s0,0-.01,0c0,0,0,0,.01,0Z"/><path class="cls-8" d="M216.41,80.29s-.05-.01-.07-.02c.02,0,.04,.01,.07,.02Z"/><path class="cls-8" d="M216.63,80.36s-.05-.01-.07-.02c.02,0,.05,.01,.07,.02Z"/><path class="cls-8" d="M217.15,80.51s-.05-.01-.08-.02c.03,0,.05,.01,.08,.02Z"/><path class="cls-8" d="M216.87,80.43s-.02,0-.02,0c0,0,.02,0,.02,0Z"/><path class="cls-8" d="M215.13,79.8s-.03-.02-.05-.02c.02,0,.03,.02,.05,.02Z"/><path class="cls-8" d="M215.24,79.19s.03-.05,.05-.07c.11-.17,.23-.33,.36-.49,0,0,0,0,0,0,.06,.02,.11,.04,.17,.07-.06-.02-.11-.04-.17-.07,0,0,0,0,0,0-.27,.34-.51,.7-.73,1.07,0,0,0,0,0,0,.1-.17,.21-.34,.32-.51Z"/><path class="cls-8" d="M220.66,81.13s-.07,0-.11-.01c.04,0,.07,0,.11,.01Z"/><path class="cls-8" d="M219.99,81.05s-.07,0-.1-.01c.03,0,.07,0,.1,.01Z"/><path class="cls-8" d="M220.95,81.16s-.07,0-.11-.01c.04,0,.07,0,.11,.01Z"/><path class="cls-8" d="M220.32,81.09s-.05,0-.08,0c.03,0,.05,0,.08,0Z"/><path class="cls-8" d="M218.16,79.35s-.03,0-.04,0c.01,0,.03,0,.04,0Z"/><path class="cls-8" d="M216.38,78.89s-.09-.03-.13-.04c.04,.01,.08,.03,.13,.04Z"/><path class="cls-8" d="M216.63,78.97c-.06-.02-.12-.04-.19-.06,.06,.02,.12,.04,.19,.06Z"/><path class="cls-8" d="M216.19,78.82s-.08-.03-.12-.04c.04,.01,.08,.03,.12,.04Z"/><path class="cls-8" d="M217.41,79.18s-.04-.01-.06-.02c.02,0,.04,.01,.06,.02Z"/><path class="cls-8" d="M216,78.76s-.08-.03-.12-.04c.04,.01,.08,.03,.12,.04Z"/><path class="cls-8" d="M217.95,79.31s-.03,0-.04,0c.01,0,.03,0,.04,0Z"/><path class="cls-8" d="M216.83,79.02s-.08-.02-.11-.03c.04,.01,.08,.02,.11,.03Z"/><path class="cls-8" d="M217.03,79.08s-.07-.02-.1-.03c.03,0,.07,.02,.1,.03Z"/><path class="cls-8" d="M217.23,79.13s-.06-.02-.09-.02c.03,0,.06,.02,.09,.02Z"/><path class="cls-8" d="M218.35,79.39s0,0,0,0c0,0,0,0,0,0Z"/><path class="cls-10" d="M221.5,74.94c-.27,.06-.54,.14-.81,.22-.04,.01-.09,.03-.13,.04-.79,.26-1.53,.61-2.22,1.03,1.64,.33,3.58,.51,5.65,.51,1.5,0,2.93-.11,4.23-.29,.22-.03,.44-.07,.65-.1,.26-.04,.52-.09,.77-.14-.2-.12-.41-.24-.62-.35,0,0,0,0-.01,0-.04-.02-.08-.04-.13-.06-.02,0-.04-.02-.05-.03-.03-.01-.05-.02-.08-.04-.03-.02-.07-.03-.1-.05,0,0,0,0-.01,0-1.02-.48-2.13-.81-3.3-.95,0,0,0,0,0,0,0,0,0,0,0,0-.06,0-.12-.01-.17-.02-.01,0-.02,0-.03,0-.05,0-.1,0-.15-.01-.02,0-.03,0-.05,0-.04,0-.09,0-.13-.01,0,0-.01,0-.02,0-.01,0-.02,0-.04,0-.04,0-.08,0-.12,0-.02,0-.04,0-.06,0-.04,0-.08,0-.12,0-.02,0-.04,0-.06,0-.04,0-.09,0-.13,0,0,0,0,0,0,0-.02,0-.04,0-.05,0-.06,0-.12,0-.19,0-.05,0-.1,0-.16,0,0,0-.02,0-.03,0-.02,0-.04,0-.05,0-.04,0-.09,0-.13,0-.02,0-.04,0-.06,0-.04,0-.09,0-.13,0-.02,0-.03,0-.05,0-.05,0-.1,0-.15,0,0,0-.02,0-.03,0-.58,.04-1.16,.13-1.71,.26Z"/><path class="cls-4" d="M225.82,83.69l.37,.52c.19,.26-.05,.6-.38,.54-1.22-.2-2.52-.99-4.49-1.11h0c-.38-.03-.75-.07-1.11-.11-.21,.74-.33,1.51-.35,2.3,0,0,0,0,0,0,0,0,0,0,0,0,1.29,.16,2.69,.25,4.15,.24,4.57,0,8.51-.88,10.38-2.13,0,.16,.02,.32,.02,.49,0-.08,0-.15,0-.23,0-.02,0-.05,0-.07,0-.05,0-.11,0-.16,0-.03,0-.05,0-.08,0-.07,0-.14-.01-.2,0-.03,0-.06,0-.09,0-.04,0-.08-.01-.12,0-.04,0-.08-.01-.12,0-.03,0-.05-.01-.08-.07-.59-.2-1.16-.38-1.71-1.39,1.1-4.44,1.92-8.14,2.13Z"/><path class="cls-4" d="M213.63,83.8c0-.05,0-.11,.01-.16,.02-.21,.04-.43,.07-.64,0,0,0,0,0,0,.04-.22,.08-.44,.13-.66,0-.03,.02-.07,.02-.1,.05-.21,.11-.42,.18-.63,1.14,.89,3.37,1.59,6.15,1.92,.24-.83,.58-1.62,1.03-2.34,0,0-.02,0-.03,0-.09,0-.17-.01-.25-.02-.04,0-.07,0-.11-.01-.06,0-.12-.01-.19-.02-.04,0-.07,0-.11-.01-.08,0-.15-.02-.23-.03-.03,0-.05,0-.08,0-.08,0-.16-.02-.25-.03-.03,0-.07,0-.1-.01-.06,0-.12-.02-.18-.02-.03,0-.07,0-.1-.01-.07-.01-.15-.02-.22-.03-.02,0-.05,0-.07-.01-.08-.01-.16-.03-.24-.04-.03,0-.06-.01-.1-.02-.06,0-.12-.02-.17-.03-.03,0-.06-.01-.09-.02-.07-.01-.15-.03-.22-.04-.02,0-.04,0-.05-.01-.08-.02-.15-.03-.23-.05-.03,0-.06-.01-.09-.02-.06-.01-.11-.02-.17-.04-.03,0-.06-.01-.09-.02-.07-.02-.14-.03-.21-.05-.01,0-.03,0-.04,0-.07-.02-.15-.04-.22-.05-.03,0-.05-.01-.08-.02-.05-.01-.11-.03-.16-.04-.03,0-.05-.01-.08-.02-.07-.02-.14-.04-.21-.06,0,0-.02,0-.02,0-.07-.02-.14-.04-.21-.06-.02,0-.05-.01-.07-.02-.05-.02-.1-.03-.15-.05-.02,0-.05-.01-.07-.02-.07-.02-.13-.04-.2-.07,0,0,0,0-.01,0-.07-.02-.13-.05-.2-.07-.02,0-.04-.02-.06-.02-.05-.02-.09-.04-.14-.05-.02,0-.04-.02-.06-.02-.06-.02-.12-.05-.18-.07,0,0,0,0,0,0-.06-.02-.12-.05-.18-.08-.02,0-.04-.02-.05-.02-.04-.02-.08-.04-.13-.06-.02,0-.03-.02-.05-.02-.05-.03-.11-.05-.16-.08,0,0,0,0,0,0h0c.22-.37,.46-.73,.73-1.07,0,0,0,0,0,0,.04-.05,.08-.1,.12-.16,.02-.02,.03-.04,.05-.06,.11-.13,.22-.26,.34-.39,.01-.02,.03-.03,.04-.05,.39-.42,.83-.81,1.29-1.16,.03-.02,.05-.04,.08-.06,.13-.1,.26-.19,.39-.28,.03-.02,.06-.04,.09-.06,.15-.1,.3-.19,.45-.28,.01,0,.03-.02,.04-.02,.17-.1,.35-.2,.53-.29,0,0,.02,0,.02-.01,.16-.08,.32-.16,.49-.23,.04-.02,.09-.04,.14-.06,.13-.06,.27-.11,.4-.16,.05-.02,.11-.04,.16-.06,.09-.03,.19-.07,.28-.1,.04-.01,.09-.03,.13-.04,0,0,0,0,.01,0,.04-.01,.09-.03,.13-.04,.19-.06,.38-.11,.57-.16,.02,0,.03,0,.05-.01,.01,0,.03,0,.04,0,.55-.13,1.12-.22,1.71-.26-.01,0-.02,0-.03,0-.08,0-.15,.01-.23,.02-.02,0-.04,0-.06,0-.07,0-.15,.02-.22,.02-.01,0-.02,0-.03,0-.07,0-.13,.02-.2,.03-.02,0-.04,0-.06,0-.07,.01-.14,.02-.21,.03-.02,0-.04,0-.06,.01-.06,.01-.12,.02-.18,.03-.02,0-.03,0-.05,0-.07,.01-.13,.03-.2,.04-.03,0-.05,.01-.08,.02-.06,.01-.13,.03-.19,.04-.02,0-.05,.01-.07,.02-.05,.01-.09,.02-.14,.04-.03,0-.06,.01-.08,.02-.06,.02-.12,.03-.18,.05-.03,0-.06,.02-.1,.03-.04,.01-.08,.02-.11,.04-.05,.02-.1,.03-.15,.05-.03,.01-.07,.02-.1,.03-.04,.01-.07,.03-.11,.04-.03,0-.06,.02-.08,.03-.06,.02-.12,.05-.19,.07-.02,0-.04,.02-.06,.02-.08,.03-.17,.07-.25,.1,0,0,0,0,0,0-.05,.02-.09,.04-.14,.06,0,0,0,0-.01,0-.09,.04-.18,.08-.27,.12,0,0,0,0,0,0-3.07,1.45-5.26,4.28-5.67,7.63,0,.03,0,.05,0,.08,0,.04,0,.08-.01,.12,0,.04,0,.08-.01,.12,0,.03,0,.06,0,.09,0,.07,0,.14-.01,.2,0,.03,0,.05,0,.08,0,.05,0,.11,0,.16,0,.02,0,.05,0,.07,0,.07,0,.15,0,.23,0-.22,0-.44,.02-.66Z"/><path class="cls-3" d="M224.01,86.07c-1.46,0-2.86-.08-4.15-.24,0,.09,0,.17,0,.26,0,.55,.05,1.09,.15,1.61-2.67-.34-4.81-1.02-5.92-1.88,1.11,.86,3.25,1.54,5.92,1.88,1.24,.16,2.6,.25,4.02,.24,4.91,0,9.05-1.09,10.34-2.55,.03-.32,.05-.64,.05-.97,0-.16-.01-.33-.02-.49-1.87,1.25-5.81,2.13-10.38,2.13Z"/><path class="cls-3" d="M213.66,85.44s0,0,0,0c-.02-.16-.03-.31-.04-.47,0-.16-.01-.32-.01-.49,0,.33,.02,.65,.05,.97t0,0Z"/><path class="cls-3" d="M213.74,85.52s-.06-.06-.08-.09c.03,.03,.05,.06,.08,.09Z"/><path class="cls-3" d="M213.95,85.72s-.07-.06-.1-.09c.03,.03,.06,.06,.1,.09Z"/><path class="cls-3" d="M213.84,85.62s-.05-.05-.08-.07c.02,.02,.05,.05,.08,.07Z"/><path class="cls-3" d="M214.07,85.81s-.07-.05-.1-.08c.03,.03,.06,.05,.1,.08Z"/><path class="cls-8" d="M232.51,90.08c.66-.89,1.17-1.88,1.49-2.95-1,.81-2.9,1.47-5.29,1.85l-1.36,.18c-1.05,.11-2.18,.18-3.34,.18-1.28,0-2.5-.07-3.64-.2,.17,.49,.38,.95,.63,1.4-.19-.08-.37-.17-.55-.25,.18,.08,.36,.16,.54,.25,.96,.44,1.98,.88,3.02,.9,3.45,.04,6.52-.54,8.49-1.37Z"/><path class="cls-8" d="M219.85,90.04s-.03-.01-.05-.02c.02,0,.03,.01,.05,.02Z"/><path class="cls-8" d="M219.77,90.01s-.03-.01-.04-.02c.01,0,.03,.01,.04,.02Z"/><path class="cls-8" d="M219.61,89.95s-.03,0-.04-.01c.01,0,.03,0,.04,.01Z"/><path class="cls-8" d="M219.93,90.08s-.03-.01-.05-.02c.02,0,.03,.01,.05,.02Z"/><path class="cls-8" d="M219.69,89.98s-.03-.01-.04-.02c.01,0,.03,.01,.04,.02Z"/><path class="cls-8" d="M220.02,90.11s-.03-.01-.05-.02c.02,0,.03,.01,.05,.02Z"/><path class="cls-8" d="M220.19,90.18s-.04-.02-.06-.02c.02,0,.04,.02,.06,.02Z"/><path class="cls-8" d="M220.1,90.15s-.04-.01-.05-.02c.02,0,.04,.01,.05,.02Z"/><path class="cls-8" d="M219.05,89.79s-.03,0-.04,0c.01,0,.03,0,.04,0Z"/><path class="cls-8" d="M218.97,89.77s-.03,0-.04,0c.01,0,.03,0,.04,0Z"/><path class="cls-8" d="M219.13,89.8s-.03,0-.04,0c.01,0,.03,0,.04,0Z"/><path class="cls-8" d="M220.27,90.22s-.04-.02-.06-.03c.02,0,.04,.02,.06,.03Z"/><path class="cls-8" d="M219.21,89.83s-.03,0-.04-.01c.01,0,.03,0,.04,.01Z"/><path class="cls-8" d="M219.44,89.9s-.03,0-.04-.01c.01,0,.03,0,.04,.01Z"/><path class="cls-8" d="M219.52,89.92s-.03,0-.04-.01c.01,0,.03,0,.04,.01Z"/><path class="cls-8" d="M219.29,89.85s-.03,0-.04-.01c.01,0,.03,0,.04,.01Z"/><path class="cls-8" d="M219.36,89.87s-.03,0-.04-.01c.01,0,.03,0,.04,.01Z"/><path class="cls-8" d="M218.2,89.81c.05-.06,.13-.1,.24-.1,.02,0,.05,0,.07,0-.02,0-.05,0-.07,0-.12,0-.2,.04-.24,.1Z"/><path class="cls-8" d="M218.21,90.44s.02,.08,.04,.11c-.01-.04-.03-.07-.04-.11Z"/><path class="cls-8" d="M214.24,87.34s0,0,.01,0c0,0,0,0-.01,0Z"/><path class="cls-8" d="M214.37,87.42s.01,0,.02,.01c0,0-.01,0-.02-.01Z"/><path class="cls-8" d="M218.4,90.91s.01,.02,.01,.03c0,0,0-.01-.01-.03Z"/><path class="cls-8" d="M214.12,87.25s.02,.01,.03,.02c0,0-.02-.01-.03-.02Z"/><path class="cls-8" d="M214.02,87.17h0c.33,1.07,.84,2.06,1.51,2.94,.52,.21,1.11,.41,1.77,.58-.66-.17-1.25-.36-1.77-.58-.67-.88-1.18-1.87-1.51-2.94Z"/><path class="cls-8" d="M214.5,87.51s0,0,0,0c0,0,0,0,0,0Z"/><path class="cls-8" d="M218.9,89.75s-.03,0-.04,0c.01,0,.03,0,.04,0Z"/><path class="cls-8" d="M218.18,90.33s.02,.07,.03,.1c-.01-.03-.02-.07-.03-.1Z"/><path class="cls-8" d="M220.36,90.26s-.04-.02-.07-.03c.02,0,.04,.02,.07,.03Z"/><path class="cls-8" d="M218.82,89.74s-.03,0-.04,0c.01,0,.03,0,.04,0Z"/><path class="cls-8" d="M220.45,90.3s-.05-.02-.07-.03c.02,.01,.05,.02,.07,.03Z"/><path class="cls-8" d="M218.75,89.73s-.03,0-.04,0c.01,0,.03,0,.04,0Z"/><path class="cls-8" d="M218.67,89.72s-.03,0-.05,0c.02,0,.03,0,.05,0Z"/><path class="cls-8" d="M218.19,89.83s-.02,.04-.03,.07c0-.02,.02-.05,.03-.07Z"/><path class="cls-8" d="M218.6,89.71s-.04,0-.05,0c.02,0,.04,0,.05,0Z"/><path class="cls-3" d="M224.52,94.23s.07,0,.1,0c.05,0,.1,0,.15,0,.04,0,.07,0,.11,0,.05,0,.09,0,.14-.01,.04,0,.07,0,.11-.01,.04,0,.08,0,.13-.01,.17-.02,.33-.04,.5-.07,.02,0,.04,0,.07-.01,.06,0,.11-.02,.17-.03,.02,0,.04,0,.06-.01,.06-.01,.12-.02,.18-.03,.01,0,.02,0,.03,0,1.56-.32,2.98-.97,4.19-1.87-1.79,.44-4.01,.7-6.41,.7-.44,0-.88,0-1.3-.02,.53,.53,1.12,1,1.77,1.4-.15,0-.31,.02-.46,.02,.08,0,.17,0,.25,0,.03,0,.06,0,.08,0,.05,0,.11,0,.16,0Z"/><path class="cls-3" d="M223.21,94.21s-.09,0-.14,0c-.26-.02-.52-.05-.77-.09-.04,0-.08-.01-.13-.02-.54-.09-1.07-.22-1.58-.39-.02,0-.03-.01-.05-.02-.26-.09-.51-.18-.76-.28-.02,0-.03-.01-.05-.02-.48-.2-.94-.44-1.37-.7,1.03,.63,2.18,1.09,3.42,1.34,.01,0,.02,0,.03,0,.06,.01,.12,.02,.18,.03,.02,0,.04,0,.06,0,.06,0,.11,.02,.17,.03,.02,0,.04,0,.06,0,.17,.03,.33,.05,.5,.07,.04,0,.08,0,.13,.01,.04,0,.07,0,.11,0,.05,0,.09,0,.14,.01,.04,0,.07,0,.11,0,.05,0,.1,0,.15,0,.03,0,.07,0,.1,0,.05,0,.11,0,.16,0,.03,0,.06,0,.08,0,.08,0,.17,0,.25,0-.27,0-.55-.01-.81-.03Z"/><path class="cls-3" d="M217.9,92.23s-.03,0-.04,0c.01,0,.03,0,.04,0Z"/><path class="cls-3" d="M218.17,92.29s0,0,0,0c0,0,0,0,0,0Z"/><path class="cls-3" d="M217.61,92.17h0s0,0,0,0Z"/><path class="cls-3" d="M217.88,92.36c.16,.11,.32,.21,.48,.31-.16-.1-.32-.2-.48-.31Z"/><path class="cls-3" d="M217.61,92.17c.07,.05,.15,.11,.22,.16-.08-.05-.15-.11-.22-.16Z"/><path class="cls-3" d="M219.86,85.83c.02-.79,.14-1.56,.35-2.3,0,0,0,0,0,0,0,0,0,0,0,0-2.78-.34-5.01-1.04-6.15-1.92-.07,.21-.12,.42-.18,.63,0,.03-.02,.07-.02,.1-.05,.22-.1,.44-.13,.66,0,0,0,0,0,0-.03,.21-.06,.42-.07,.64,0,.05,0,.11-.01,.16-.02,.22-.03,.44-.02,.66,0-.16,.01-.33,.02-.49,1.27,.85,3.5,1.51,6.23,1.85Z"/><path class="cls-10" d="M213.66,85.43s0,0,0,0h0s0,0,0,0c.03,.03,.05,.06,.08,.09,0,0,.01,.02,.02,.02,.02,.02,.05,.05,.08,.07,0,0,0,0,.01,.01,.03,.03,.06,.06,.1,.09,0,0,.01,0,.02,.01,.03,.03,.06,.05,.1,.08,0,0,0,0,.01,0,1.11,.86,3.25,1.54,5.92,1.88-.09-.52-.15-1.06-.15-1.61,0-.09,0-.17,0-.26,0,0,0,0,0,0,0,0,0,0,0,0-2.73-.34-4.96-1-6.23-1.85,0,.16-.02,.32-.02,.49s0,.33,.01,.49c0,.16,.02,.32,.04,.47Z"/><path class="cls-7" d="M221.24,81.19c.29-.47,.62-.92,.98-1.33,0,0,0,0,0,0,0,0,0,0,0,0-1.4-.07-2.71-.23-3.87-.47,0,0,0,0,0,0-.06-.01-.12-.02-.18-.04-.01,0-.03,0-.04,0-.06-.01-.11-.02-.17-.04-.01,0-.03,0-.04,0-.17-.04-.34-.08-.5-.12-.02,0-.04-.01-.06-.02-.04-.01-.08-.02-.12-.03-.03,0-.06-.02-.09-.02-.04,0-.07-.02-.11-.03-.03,0-.07-.02-.1-.03-.03,0-.07-.02-.1-.03-.04-.01-.08-.02-.11-.03-.03,0-.05-.02-.08-.02-.06-.02-.12-.04-.19-.06-.02,0-.04-.01-.06-.02-.04-.01-.09-.03-.13-.04-.02,0-.05-.02-.07-.02-.04-.01-.08-.03-.12-.04-.02,0-.05-.02-.07-.02-.04-.01-.08-.03-.12-.04-.02,0-.04-.01-.06-.02-.06-.02-.12-.04-.17-.07,0,0,0,0,0,0-.13,.16-.24,.32-.36,.49-.02,.02-.03,.05-.05,.07-.11,.17-.22,.33-.32,.51,0,0,0,0,0,0h0s0,0,0,0c.05,.03,.11,.05,.16,.08,.02,0,.03,.02,.05,.02,.04,.02,.08,.04,.13,.06,.02,0,.04,.02,.05,.02,.06,.03,.12,.05,.18,.08,0,0,0,0,0,0,.06,.02,.12,.05,.18,.07,.02,0,.04,.02,.06,.02,.05,.02,.09,.04,.14,.05,.02,0,.04,.02,.06,.02,.06,.02,.13,.05,.2,.07,0,0,0,0,.01,0,.06,.02,.13,.04,.2,.07,.02,0,.04,.01,.07,.02,.05,.02,.1,.03,.15,.05,.02,0,.05,.01,.07,.02,.07,.02,.14,.04,.21,.06,0,0,.02,0,.02,0,.07,.02,.14,.04,.21,.06,.03,0,.05,.01,.08,.02,.05,.01,.11,.03,.16,.04,.03,0,.05,.01,.08,.02,.07,.02,.15,.04,.22,.05,.01,0,.03,0,.04,0,.07,.02,.14,.03,.21,.05,.03,0,.06,.01,.09,.02,.06,.01,.11,.02,.17,.04,.03,0,.06,.01,.09,.02,.08,.02,.15,.03,.23,.05,.02,0,.04,0,.05,.01,.07,.01,.15,.03,.22,.04,.03,0,.06,.01,.09,.02,.06,.01,.12,.02,.17,.03,.03,0,.06,.01,.1,.02,.08,.01,.16,.03,.24,.04,.02,0,.05,0,.07,.01,.07,.01,.15,.02,.22,.03,.03,0,.07,0,.1,.01,.06,0,.12,.02,.18,.02,.03,0,.07,0,.1,.01,.08,.01,.16,.02,.25,.03,.03,0,.05,0,.08,0,.08,0,.15,.02,.23,.03,.04,0,.07,0,.11,.01,.06,0,.12,.01,.19,.02,.04,0,.07,0,.11,.01,.08,0,.17,.02,.25,.02,0,0,.02,0,.03,0Z"/><path class="cls-10" d="M224.49,94.22c-.64-.4-1.23-.88-1.77-1.4,0,0,0,0,0,0,0,0,0,0,0,0-1.66-.06-3.21-.25-4.54-.53,0,0,0,0,0,0-.09-.02-.18-.04-.27-.06-.01,0-.03,0-.04,0-.09-.02-.17-.04-.25-.06,0,0,0,0,0,0h0s0,0,0,0c.07,.05,.15,.11,.22,.16,.02,.01,.03,.02,.05,.04,.16,.11,.32,.21,.48,.31,0,0,.01,0,.02,.01,.44,.26,.89,.5,1.37,.7,.02,0,.03,.01,.05,.02,.25,.1,.5,.2,.76,.28,.02,0,.03,.01,.05,.02,.51,.17,1.03,.29,1.58,.39,.04,0,.08,.01,.13,.02,.25,.04,.51,.07,.77,.09,.05,0,.09,0,.14,0,.27,.02,.54,.03,.81,.03,.16,0,.31-.01,.46-.02Z"/><path class="cls-7" d="M220.9,91.64c.02-.47-.28-.75-.7-.98-.53-.29-1.45-.49-1.39,0s2.06,1.45,2.08,.98Z"/><ellipse class="cls-4" cx="224.53" cy="83.47" rx=".52" ry=".33" transform="translate(-.16 .43) rotate(-.11)"/></g></g></g></g></svg>